# xmcd
#
# Track frame offsets:
#	150
#	12405
#	26742
#	39267
#	52732
#	66765
#	79830
#	91892
#	107035
#	120330
#	135210
#	150347
#	165110
#	178900
#	191415
#	204245
#	217995
#	231597
#	244875
#	256187
#
# Disc length: 3577 seconds
# Revision: 7
# Processed by: cddbd v1.5.2PL0 Copyright (c) Steve Scherf et al.
# Submitted via: dBpowerAMP V12.0
#
DISCID=f30df714
DTITLE=Muddy Waters - His Best - 1947 to 1955
DYEAR=1997
DGENRE=Blues
TTITLE0=I Can't Be Satisfied
TTITLE1=I Feel Like Going Home
TTITLE2=Train Fare Blues
TTITLE3=Rollin' and Tumblin', Pt. 1
TTITLE4=Rollin' Stone
TTITLE5=Louisiana Blues
TTITLE6=Long Distance Call
TTITLE7=Honey Bee
TTITLE8=She Moves Me
TTITLE9=Still a Fool
TTITLE10=Standing Around Crying
TTITLE11=Baby Please Don't Go
TTITLE12=I Want You to Love Me
TTITLE13=(I'm Your) Hoochie Coochie Man
TTITLE14=I Just Want to Make Love to You
TTITLE15=I'm Ready
TTITLE16=Young Fashioned Ways
TTITLE17=Mannish Boy
TTITLE18=Sugar Sweet
TTITLE19=Trouble No More
EXTD=
EXTT0=
EXTT1=
EXTT2=
EXTT3=
EXTT4=
EXTT5=
EXTT6=
EXTT7=
EXTT8=
EXTT9=
EXTT10=
EXTT11=
EXTT12=
EXTT13=
EXTT14=
EXTT15=
EXTT16=
EXTT17=
EXTT18=
EXTT19=
PLAYORDER=
